<?xml version="1.0" encoding="utf-8"?>
<!-- Svg Vector Icons : http://www.onlinewebfonts.com/icon -->
<!DOCTYPE svg PUBLIC "-//W3C//DTD SVG 1.1//EN" "http://www.w3.org/Graphics/SVG/1.1/DTD/svg11.dtd">
<svg version="1.1" xmlns="http://www.w3.org/2000/svg" xmlns:xlink="http://www.w3.org/1999/xlink" x="0px" y="0px" viewBox="0 0 256 256" enable-background="new 0 0 256 256" xml:space="preserve">
<metadata> Svg Vector Icons : http://www.onlinewebfonts.com/icon </metadata>
<g><g><path fill="#000000" d="M124.3,234.2L112.6,214c-4.1-7.1-1.7-16.1,5.4-20.1l2.6-1.5c-0.2-1.6-0.2-3.3-0.2-4.9s0.1-3.2,0.2-4.9l-2.6-1.5c-3.4-2-5.9-5.2-6.9-9c-1-3.8-0.5-7.8,1.5-11.2l11.7-20.3c2-3.4,5.2-5.9,9-6.9c1.3-0.3,2.5-0.5,3.8-0.5c2.6,0,5.1,0.7,7.4,2l2.6,1.5c2.6-1.8,5.5-3.4,8.4-4.8V129c0-0.2,0.1-0.5,0.1-0.7c-7.8-5.9-17.6-10.5-30.2-13v-7.3c17.4-8.3,29.5-25.9,29.5-46.5c0-28.5-23.1-51.6-51.6-51.6c-28.5,0-51.6,23.1-51.6,51.6c0,20.6,12.1,38.2,29.5,46.5v7.3c-58.8,11.3-59,68.2-59,101.1c0,25.7,112.4,25,111.1,24.6C129.5,240.1,126.3,237.6,124.3,234.2z"/><path fill="#000000" d="M224.1,187.5c0-4.3-0.8-8.4-1.9-12.4l11.6-6.7l-11.7-20.3l-11.4,6.6c-5.9-5.9-13.3-10.2-21.6-12.4V129h-23.4v13.3c-8.3,2.2-15.8,6.4-21.7,12.4l-11.4-6.6l-11.7,20.3l11.6,6.7c-1.1,4-1.9,8.1-1.9,12.4s0.8,8.4,1.9,12.4l-11.6,6.7l11.7,20.3l11.4-6.6c5.9,5.9,13.3,10.2,21.7,12.4V246l23.4,0v-13.3c8.3-2.1,15.8-6.4,21.7-12.4l11.4,6.6l11.7-20.3l-11.6-6.7C223.4,196,224.1,191.9,224.1,187.5z M177.3,215.8c-15.6,0-28.2-12.6-28.2-28.2c0-15.6,12.6-28.2,28.2-28.2c15.6,0,28.2,12.6,28.2,28.2C205.6,203.1,192.9,215.8,177.3,215.8z"/></g></g>
</svg>